#!OML:ASF E:/inclinewalkrobotboard/Project1/Captureday1/Session1/subject1.ASF
:FULLY-SPECIFIED
:DEGREES
151
root 0 0 0 44.04514291675655 -45.90350979146484 -18.015900666570822
lowerback -6.322920079075274 3.429738899391227 -0.5956468653643152
upperback -13.382182949048172 4.088931851121767 0.048275264093357695
thorax -11.040036169704358 2.0222969260012804 0.8618567016506038
lowerneck -11.30915089098797 6.549894214049871 4.236007876405625
upperneck 18.17875317639595 6.992649606209394 7.240258050137946
head 7.615477389527168 4.095372454929414 2.149580420606103
rclavicle 8.837147371256474E-16 -1.8043124564223508E-15
rhumerus 7.960504103567999 -22.427803592437687 -48.8191835461233
rradius 27.93698977024561
rwrist 21.28255690612025
rhand 0.6705169305178629 7.489584122015599
rfingers 7.125020000000028
rthumb 26.286150273009557 -19.58928693118136
lclavicle 1.5018138838146867E-15 -9.577780444735398E-16
lhumerus -10.388450511792543 3.7936678710164573 51.44264502853324
lradius 35.78765627569584
lwrist -7.660597593541089
lhand -1.6140599194406633 23.27254255057326
lfingers 7.125019999999977
lthumb 23.65425397517919 50.41417773245797
rfemur 59.11446399308126 -82.15558854573271 -56.333753259945
rtibia 40.20357251518434
rfoot -18.507095444151357 -18.00864110420013
rtoes 21.682876963172525
lfemur -45.127320275656245 8.319118263433566 -27.37748627307298
ltibia 44.22175278421596
lfoot -22.520099939185897 15.065461586215367
ltoes 10.834170341793072
152
root 0 0 0 44.70961740561997 -46.87180729653416 -18.33992280463775
lowerback -6.420411784194635 3.5271420146036094 -0.5566030036065402
upperback -13.500619797340775 4.206347696702432 -0.03443728311596228
thorax -11.124270714492617 2.0719783599895827 0.765485147602315
lowerneck -11.342795166583002 6.750987062555242 4.38325496455964
upperneck 18.05933525269193 7.227698841900594 7.335340995219738
head 7.575667822196198 4.222813247318204 2.1802061452481576
rclavicle 8.728520385097176E-16 -1.800556881935785E-15
rhumerus 8.157237695386872 -22.43124676177074 -48.779733715723644
rradius 27.880057464109722
rwrist 21.414934580335277
rhand 0.7746571771696154 7.391320285393639
rfingers 7.1250200000000286
rthumb 26.388149475268236 -19.670574524869075
lclavicle 1.4861843313852145E-15 -9.410872341448718E-16
lhumerus -10.398103008758314 3.8342151852646547 51.355478510272974
lradius 35.73569543781018
lwrist -7.731243863569119
lhand -1.6285062496696536 23.296552281197894
lfingers 7.125019999999978
lthumb 23.64178074329029 50.44404546903027
rfemur 59.20767638221617 -82.26590075102641 -56.45295282372942
rtibia 40.20718425196294
rfoot -18.506792854225534 -18.019133444000175
rtoes 21.70292861868583
lfemur -45.14971962835975 8.337169868110395 -27.330461194171168
ltibia 44.20908058679535
lfoot -22.63889539265736 15.088051801725019
ltoes 10.906200221683253
153
root 0 0 0 44.85979592959124 -47.093857047812136 -18.421336765281374
lowerback -6.437365793126176 3.5568075673214175 -0.5382805331671461
upperback -13.509505203052633 4.243030061767101 -0.05834140248527886
thorax -11.129228458500622 2.0867611518326443 0.7328901372674508
lowerneck -11.366627331422166 6.791684933303146 4.419314342219631
upperneck 18.04626150434339 7.274424882872026 7.34511647617423
head 7.574343322441419 4.2483882419027665 2.1833772868260457
rclavicle 8.71776000308767E-16 -1.799828898798561E-15
rhumerus 8.182369321475369 -22.43371988369161 -48.767736954497714
rradius 27.869010839462796
rwrist 21.43715734981468
rhand 0.7933408256482721 7.373733686658718
rfingers 7.1250200000000286
rthumb 26.40735456582373 -19.684789899119025
lclavicle 1.4747895172160873E-15 -9.329754264384595E-16
lhumerus -10.436985760077178 3.8524277618426104 51.353584453352425
lradius 35.69745816919342
lwrist -7.756163589729257
lhand -1.66950044396002 23.307881419278736
lfingers 7.125019999999977
lthumb 23.60215174041217 50.46342779487048
rfemur 59.087247984924105 -82.12421944359022 -56.315357118051175
rtibia 40.20856355549861
rfoot -18.48603303804515 -18.00040200321852
rtoes 21.68047353771263
lfemur -45.05165047910911 8.308464742882816 -27.284046267426646
ltibia 44.171680492205745
lfoot -22.665262209147258 15.04426549026729
ltoes 10.895857503016694
154
root 0 0 0 44.939702932846714 -47.20240970673986 -18.46613572714249
lowerback -6.448077024510518 3.5747370195106236 -0.5249234390433792
upperback -13.506916615450871 4.26584345555251 -0.07175743313072314
thorax -11.124193952370252 2.0957789081214124 0.7126914138704512
lowerneck -11.384462537334304 6.808474374331367 4.437868231695954
upperneck 18.050116845450926 7.293008355047768 7.344176373923123
head 7.578659561922931 4.258732546632383 2.1830015935320386
rclavicle 8.713015072196219E-16 -1.7994907941239134E-15
rhumerus 8.195787611373511 -22.435206296905907 -48.76065110327989
rradius 27.863503833638624
rwrist 21.447428322283685
rhand 0.8036892612162934 7.364279300517823
rfingers 7.1250200000000286
rthumb 26.417728601423196 -19.692569757021374
lclavicle 1.4588354779465699E-15 -9.27184832110098E-16
lhumerus -10.4714472099015 3.8749233467622126 51.34220399956728
lradius 35.65761099436414
lwrist -7.785815704330634
lhand -1.711166062634927 23.31926412862267
lfingers 7.125019999999977
lthumb 23.562083055192318 50.48282164707459
rfemur 59.00536855959699 -82.02971177074687 -56.22163203436935
rtibia 40.20991787819464
rfoot -18.470702971407807 -17.98829271805944
rtoes 21.66573132085754
lfemur -44.96190577617756 8.282350438808026 -27.243008250698498
ltibia 44.13871795270886
lfoot -22.686974607452022 15.004824064133699
ltoes 10.885555477180583
